# xmcd CD database file
#
# Track frame offsets:
#	150
#	25229
#	53273
#	85895
#	106301
#	132210
#
# Disc length: 2040 seconds
#
# Revision: 0
# Processed by: cddbd v1.5.2PL0 Copyright (c) Steve Scherf et al.
# Submitted via: CDex 1.70beta2
#
DISCID=3e07f606
DTITLE=Adderley, Julian Cannonball - You're A Weaver Of Dreams
DYEAR=1959
DGENRE=Jazz
TTITLE0=You're A Weaver Of Dreams
TTITLE1=Stars Fell On Alabama
TTITLE2=The Sleeper
TTITLE3=Grand Central
TTITLE4=Wabash
TTITLE5=Limehouse Blues
EXTD=YEAR: 1959
EXTT0=
EXTT1=
EXTT2=
EXTT3=
EXTT4=
EXTT5=
PLAYORDER=
